# xmcd CD database file
#
# Track frame offsets:
#	150
#	24726
#	38967
#	69737
#	96527
#	116957
#	143402
#	190473
#	205867
#	253428
#	291551
#
# Disc length: 4419 seconds
#
# Revision: 0
# Processed by: cddbd v1.5.1PL2 Copyright (c) Steve Scherf et al.
# Submitted via: CDex 1.51
#
DISCID=ba11410b
DTITLE=Morning Becomes Eclectic, KCRW, 1999, 2002, 2004 - Brad Mehldau
DYEAR=2005
DGENRE=Jazz
TTITLE0=Brad Mehldau - Warmth Of The Sun
TTITLE1=Brad Mehldau - Bottle Up and Explode 
TTITLE2=Brad Mehldau - Trailer Park Ghost
TTITLE3=Brad Mehldau - Elegy For William Burroughs and Allen Ginsburg..Lament For Linus
TTITLE4=Brad Mehldau - Martha My Dear
TTITLE5=Brad Mehldau - Cry Me A River
TTITLE6=Brad Mehldau - Zingaro..Paris
TTITLE7=Brad Mehldau - Things Behind The Sun
TTITLE8=Brad Mehldau Trio - Anything Goes
TTITLE9=Brad Mehldau Trio - Boomer
TTITLE10=Brad Mehldau Trio - Everything In Its Right Place
EXTD=YEAR: 2005
EXTT0=
EXTT1=
EXTT2=
EXTT3=
EXTT4=
EXTT5=
EXTT6=
EXTT7=
EXTT8=
EXTT9=
EXTT10=
PLAYORDER=
